HIERARCHY
ROOT pelvis
{
  OFFSET 0 100 0
  CHANNELS 6 Xposition Yposition Zposition Zrotation Xrotation Yrotation
  JOINT pelvis_right_femur
  {
    OFFSET -10.78128 -3.44521 -0.5502486
    CHANNELS 3 Zrotation Xrotation Yrotation
    JOINT right_femur_tibia
    {
      OFFSET -0.8047443 -44.0398 -0.1307829
      CHANNELS 3 Zrotation Xrotation Yrotation
      JOINT right_tibia_foot
      {
        OFFSET 3.006224 -47.83518 -5
        CHANNELS 3 Zrotation Xrotation Yrotation
        End Site
        {
          OFFSET 0 -5 15
        }
      }
    }
  }
  JOINT pelvis_left_femur
  {
    OFFSET 10.78128 -3.44521 -0.5502486
    CHANNELS 3 Zrotation Xrotation Yrotation
    JOINT left_femur_tibia
    {
      OFFSET 0.8047443 -44.0398 -0.1307829
      CHANNELS 3 Zrotation Xrotation Yrotation
      JOINT left_tibia_foot
      {
        OFFSET -4.370144 -48.10324 -4.275266
        CHANNELS 3 Zrotation Xrotation Yrotation
        End Site
        {
          OFFSET 0 -5 15
        }
      }
    }
  }
  JOINT pelvis_spine1
  {
    OFFSET 0 6.468898 -3.129235
    CHANNELS 3 Zrotation Xrotation Yrotation
    JOINT spine1
    {
      OFFSET 0 23.15396 4.99043
      CHANNELS 3 Zrotation Xrotation Yrotation
      JOINT spine2
      {
        OFFSET 0 20.79997 -5.064912
        CHANNELS 3 Zrotation Xrotation Yrotation
        JOINT neck
        {
          OFFSET 0 14.38658 9.616178
          CHANNELS 3 Zrotation Xrotation Yrotation
          End Site
          {
            OFFSET 0 20 0
          }
        }
      }
      JOINT right_manubrium
      {
        OFFSET -5.722621 16.35077 3.967754
        CHANNELS 3 Zrotation Xrotation Yrotation
        JOINT right_clavicle
        {
          OFFSET -13.16364 1.694482 -4.693211
          CHANNELS 3 Zrotation Xrotation Yrotation
          JOINT right_humerus
          {
            OFFSET -28.5034 -0.3100689 -2.792744
            CHANNELS 3 Zrotation Xrotation Yrotation
            JOINT right_radius
            {
              OFFSET -25.15693 0.02248979 -1.271978
              CHANNELS 3 Zrotation Xrotation Yrotation
              End Site
              {
                OFFSET -15 0 0
              }
            }
          }
        }
      }
      JOINT left_manubrium
      {
        OFFSET 5.722621 16.35077 3.967754
        CHANNELS 3 Zrotation Xrotation Yrotation
        JOINT left_clavicle
        {
          OFFSET 13.16364 1.694482 -4.693211
          CHANNELS 3 Zrotation Xrotation Yrotation
          JOINT left_humerus
          {
            OFFSET 29.39168 -1.063119 -2.237045
            CHANNELS 3 Zrotation Xrotation Yrotation
            JOINT left_radius
            {
              OFFSET 24.59957 -0.9528479 0.9047498
              CHANNELS 3 Zrotation Xrotation Yrotation
              End Site
              {
                OFFSET 15 -0 -0
              }
            }
          }
        }
      }
    }
  }
}
MOTION
Frames: 7
Frame Time: 0.0416666666667
-960.8766 102.1271 2592.25 -5.821606 -3.834995 -59.95661 5.81345 5.488643 0.6618862 -0 7.644435 -0 -10.17321 -7.221398 -1.548095 0.2034363 -17.18853 -4.335957 -0 49.58912 -0 -1.850592 -4.639237 15.77553 1.537757 -7.117759 9.060478 2.405029 20.87332 -9.744937 1.22248 18.82745 0.1483806 -2.137485 -20.0311 4.085702 -4.44434 -34.18368 14.47253 93.93744 5.900786 -17.04411 -0 0 28.54068 -22.27709 19.07848 11.97555 0.9394442 -26.63432 -9.899145 -94.84561 13.5926 35.00878 0 0 -17.19859 4.510411 14.27393 4.540536
-965.1846 101.621 2594.971 -5.860663 -3.500337 -60.51287 5.855727 8.890438 0.7850075 -0 7.384769 -0 -10.04531 -9.772195 -1.254595 2.037768 -21.14265 -3.407233 -0 38.41059 -0 -1.300596 -4.375519 16.57858 1.405205 -7.254874 9.206852 2.210141 21.01965 -9.356079 1.366717 18.35898 -0.07723611 -2.055712 -19.51532 3.961956 -3.56907 -34.83258 14.50008 92.5612 6.486127 -15.43285 -0 0 30.59497 -22.66171 20.4763 13.01253 0.9640781 -26.01885 -9.556206 -95.77123 13.48949 36.44244 0 0 -14.98625 3.628468 13.72349 5.701166
-969.548 100.5995 2597.908 -5.866051 -2.761063 -61.00717 6.161125 11.69571 0.721024 -0 7.786451 -0 -9.412432 -12.26367 -0.8640563 3.865545 -23.72307 -2.224229 -0 26.87003 -0 -0.750848 -3.560477 16.89626 1.284573 -7.290289 9.276159 2.045571 21.01055 -8.983344 1.506898 17.98582 -0.252022 -1.981824 -19.15504 3.891928 -2.85954 -35.31594 14.46697 91.34738 7.159018 -13.93834 -0 0 32.24562 -22.97221 21.60607 13.90796 0.9874202 -25.39843 -9.181569 -96.52059 13.44755 37.56691 0 0 -12.98907 2.903468 13.24232 6.656719
-974.0843 99.32524 2601.176 -5.727106 -1.929493 -61.52799 6.268924 13.89627 0.5849101 -0 9.067971 -0 -8.49741 -14.43664 -0.4343475 4.981803 -24.84928 -1.354594 -0 17.42414 -0 -0.381874 -2.609938 16.767 1.204204 -7.186053 9.268968 1.922384 20.81395 -8.642358 1.630284 17.76838 -0.3546406 -1.937692 -19.02308 3.899059 -2.436232 -35.60517 14.3564 90.4428 7.907828 -12.64766 -0 0 33.33218 -23.16099 22.29755 14.57682 0.9719126 -24.78882 -8.778352 -97.07528 13.46474 38.39092 0 0 -11.21563 2.389453 12.91889 7.341508
-978.8899 98.09341 2604.817 -5.432424 -1.40491 -62.13341 5.729386 15.69536 0.5074816 -0 11.37181 -0 -7.830712 -15.69431 -0.09381855 4.818783 -24.62223 -1.45725 -0 11.74282 -0 -0.4148858 -2.123653 16.5137 1.183035 -6.934236 9.198328 1.8462 20.43658 -8.351245 1.723305 17.74151 -0.3713409 -1.934133 -19.14649 3.991246 -2.366921 -35.69417 14.17181 89.9539 8.694131 -11.64912 -0 0 33.76883 -23.1969 22.44292 14.95656 0.8923482 -24.22051 -8.367198 -97.4313 13.52185 38.94351 0 0 -9.69051 2.119342 12.81171 7.717091
-984.0185 97.15262 2608.787 -5.044451 -1.466398 -62.80846 4.319255 17.42489 0.5631192 -0 14.72215 -0 -7.904309 -15.20439 0.1193387 3.273957 -23.34939 -2.926118 -0 10.02488 -0 -0.9571226 -2.514634 16.60035 1.221937 -6.560511 9.083903 1.813158 19.92769 -8.124338 1.777391 17.89994 -0.30361 -1.962092 -19.48698 4.152621 -2.632431 -35.59492 13.93765 89.90326 9.46844 -11.00797 -0 0 33.57525 -23.07999 22.04357 15.02457 0.751171 -23.73264 -7.986391 -97.5922 13.5929 39.24474 0 0 -8.463829 2.097101 12.9222 7.776097
-989.4612 96.66757 2612.965 -4.669845 -2.140387 -63.44624 2.19574 19.17171 0.7186529 -0 19.27871 -0 -8.856193 -12.16368 0.4113329 0.7628704 -21.35458 -5.589972 -0 11.15522 -0 -1.753812 -3.731212 17.2972 1.304558 -6.117446 8.947639 1.81411 19.36745 -7.97323 1.790609 18.19977 -0.1703088 -1.99918 -19.95535 4.346697 -3.139538 -35.33635 13.69127 90.23135 10.17614 -10.75555 -0 0 32.86821 -22.83726 21.20995 14.79686 0.5772549 -23.36754 -7.682856 -97.56467 13.65703 39.29473 0 0 -7.614506 2.297123 13.19408 7.539351
